<svg width="20" height="21" viewBox="0 0 20 21" fill="none" xmlns="http://www.w3.org/2000/svg">
<path d="M19.53 19.2381L15.87 15.5781C17.195 14.0081 18 11.9821 18 9.76807C18 4.79807 13.97 0.768066 9 0.768066C4.03 0.768066 0 4.79807 0 9.76807C0 14.7381 4.03 18.7681 9 18.7681C11.215 18.7681 13.24 17.9641 14.808 16.6381L18.468 20.2981C18.615 20.4441 18.808 20.5181 18.998 20.5181C19.188 20.5181 19.383 20.4451 19.528 20.2981C19.823 20.0051 19.823 19.5311 19.53 19.2381ZM1.5 9.76807C1.5 5.63307 4.865 2.26807 9 2.26807C13.135 2.26807 16.5 5.63307 16.5 9.76807C16.5 13.9031 13.135 17.2681 9 17.2681C4.865 17.2681 1.5 13.9031 1.5 9.76807Z" fill="black"/>
</svg>
